<svg xmlns="http://www.w3.org/2000/svg" xmlns:xlink="http://www.w3.org/1999/xlink" xmlns:inkscape="http://www.inkscape.org/namespaces/inkscape" version="1.1" width="657.8" height="227.2" viewBox="630.9 354.0 657.8 227.2">
<defs>
<clipPath id="clip_1">
<path transform="matrix(1,0,0,-1,0,1080)" d="M0 1080H1920V0H0Z"/>
</clipPath>
<path id="font_2_149" d="M.2669983 0 .005004883 .7200012H.05000305L.28900147 .06100464 .52900698 .7200012H.5740051L.31199647 0H.2669983Z"/>
<path id="font_2_61" d="M.08000183 0V.7200012H.12199402V0H.08000183Z"/>
<path id="font_2_118" d="M.30900575-.01499939C.2603302-.01499939 .21657817-.0070851647 .17774964 .008743286 .1389211 .02458191 .10675558 .047002157 .08125305 .07600403 .05575053 .1050059 .03866577 .13933818 .02999878 .17900086L.072006229 .18699646C.085006717 .13766988 .1126709 .09866842 .15499878 .069992069 .19733684 .041325887 .24867249 .026992798 .30900575 .026992798 .35099793 .026992798 .3876597 .03366089 .4189911 .04699707 .45033265 .060333253 .4746704 .079081218 .4920044 .10324097 .5093384 .12741089 .5180054 .15566509 .5180054 .18800354 .5180054 .21233623 .513504 .23266602 .50450137 .24899292 .49549867 .26533 .48408 .2785797 .47024537 .28874208 .45641075 .29891459 .44199119 .30700175 .4269867 .31300355 .4119924 .31900535 .3986613 .32366944 .3869934 .32699586L.20700073 .3809967C.18099976 .38866679 .15857952 .3980001 .13973999 .40899659 .120910648 .42000328 .10549418 .43250529 .0934906 .4465027 .08149719 .4605001 .07258097 .47583009 .06674194 .49249269 .060913087 .50916549 .057998659 .527003 .057998659 .54600527 .057998659 .58266708 .06791178 .61524459 .08773804 .6437378 .10757446 .6722412 .13515727 .694575 .17048645 .71073916 .2058258 .72691348 .2466634 .7350006 .29299928 .7350006 .33999635 .7350006 .38216148 .7263336 .41949464 .70899966 .4568278 .69166567 .4874115 .6672465 .5112457 .6357422 .53507998 .60424807 .549998 .56733199 .55599978 .5249939L.51400759 .5169983C.5093384 .55200198 .49700419 .5827535 .477005 .6092529 .45700584 .6357524 .4311727 .65633139 .39950563 .67099 .36783854 .68565878 .33233644 .69299319 .29299928 .69299319 .2553304 .69299319 .22224427 .6864929 .19374085 .67349246 .1652476 .66050216 .14300029 .6430054 .1269989 .6210022 .11099752 .598999 .102996829 .5743306 .102996829 .5469971 .102996829 .5183309 .11074829 .4954122 .12625122 .47824098 .14175415 .46107994 .16066997 .4477488 .18299866 .43824769 .20533753 .42874656 .22666931 .4209951 .24699402 .4149933L.3959961 .36999513C.4086609 .366333 .42415873 .36091615 .44248963 .3537445 .4608307 .34658305 .47891746 .33633424 .49674989 .32299806 .51458236 .30966188 .5294139 .29207865 .5412445 .2702484 .5530853 .24841817 .55900576 .22100322 .55900576 .18800354 .55900576 .15699768 .5531718 .12899272 .5415039 .10398865 .529836 .07899475 .5130005 .057662965 .4909973 .039993287 .46899415 .02233378 .44265748 .008753459 .4119873-.00074768069 .3813273-.01024882 .34700013-.01499939 .30900575-.01499939Z"/>
<path id="font_2_130" d="M.34500123-.01499939C.29166667-.01499939 .24433391-.0038350423 .20300293 .018493653 .16167195 .04083252 .12917073 .072250369 .10549927 .11274719 .081837978 .15324402 .070007327 .20066326 .070007327 .25500489V.7200012H.11199951V.2689972C.11199951 .22466533 .119496669 .18691509 .13449097 .15574646 .14949544 .12457784 .16882833 .09941101 .19248963 .08024597 .21616109 .061080934 .24149578 .04707845 .26849366 .038238527 .2955017 .029408774 .32100425 .024993897 .34500123 .024993897 .3689982 .024993897 .39449565 .029408774 .42149354 .038238527 .4485016 .04707845 .47383628 .061080934 .49749757 .08024597 .521169 .09941101 .5405019 .12457784 .5554962 .15574646 .5705007 .18691509 .5780029 .22466533 .5780029 .2689972V.7200012H.6199951V.25500489C.6199951 .20099895 .60815939 .15374756 .5844879 .11325073 .5608266 .072753909 .5283305 .04125468 .4869995 .018753052 .44566856-.003748576 .39833579-.01499939 .34500123-.01499939Z"/>
<path id="font_2_1" d="M.020004273 0 .28199769 .7200012H.32699586L.5890045 0H.54400637L.28900147 .701004H.31900025L.06500244 0H.020004273M.11999512 .18699646V.227005H.4880066V.18699646H.11999512Z"/>
<path id="font_2_76" d="M.08000183 0V.7200012H.12199402V.042007448H.47999574V0H.08000183Z"/>
<path id="font_2_647" d=""/>
<path id="font_2_31" d="M.070007327 0V.7200012H.28100587C.28967286 .7200012 .3035024 .7198334 .3224945 .7194977 .3414968 .719162 .35966493 .71766158 .3769989 .71499636 .42999778 .7073364 .47391258 .68700668 .5087433 .65400698 .54358419 .62100729 .5695038 .5790863 .5865021 .528244 .60350039 .4774119 .6119995 .42133079 .6119995 .3600006 .6119995 .29833476 .60350039 .24208577 .5865021 .19125366 .5695038 .14042156 .54358419 .098587039 .5087433 .06575012 .47391258 .032913209 .42999778 .012664795 .3769989 .005004883 .3600006 .002665202 .3417511 .0012461344 .32225038 .00074768069 .30274964 .0002492269 .28900147 0 .28100587 0H.070007327M.11500549 .042007448H.28100587C.29699708 .042007448 .31307475 .0425059 .3292389 .043502809 .3454132 .044499715 .35899864 .046000165 .36999513 .04800415 .41732789 .055999757 .45540873 .07424418 .48423768 .10273743 .5130768 .13124085 .53407797 .1675771 .5472412 .21174622 .5604146 .2559153 .56700137 .30533348 .56700137 .3600006 .56700137 .41466777 .5604146 .4640808 .5472412 .50823977 .53407797 .5524089 .5130768 .5887451 .48423768 .61724856 .45540873 .64575198 .41732789 .66400149 .36999513 .6719971 .35899864 .67400106 .34516398 .6755015 .3284912 .6764984 .3118286 .6774953 .29600016 .6779938 .28100587 .6779938H.11500549V.042007448Z"/>
<path id="font_2_35" d="M.070007327 0V.7200012H.5099945V.6779938H.11199951V.3809967H.44999696V.33900453H.11199951V.042007448H.5099945V0H.070007327Z"/>
<path id="font_2_82" d="M.070007327 0V.7200012H.11199951L.55000308 .07499695V.7200012H.59199526V0H.55000308L.11199951 .6459961V0H.070007327Z"/>
<path id="font_2_125" d="M.27400209 0V.6779938H.009994507V.7200012H.58000186V.6779938H.31599427V0H.27400209Z"/>
<path id="font_2_156" d="M.23899842 0V.30599977L0 .7200012H.04800415L.2599945 .3540039 .47099305 .7200012H.5189972L.28100587 .30599977V0H.23899842Z"/>
<path id="font_2_598" d="M.2519989 .7200012H.29699708L.10499573 0H.05999756L.2519989 .7200012Z"/>
<path id="font_2_543" d="M.05000305 0 .050994874 .042007448 .3880005 .34899903C.41867066 .3766683 .43850199 .4032491 .4474945 .42874146 .4564972 .454244 .46099855 .48199464 .46099855 .5119934 .46099855 .5453288 .45283 .57566329 .43649293 .6029968 .42016603 .6303304 .39833579 .65216067 .3710022 .66848757 .3436686 .68482467 .31333415 .69299319 .27999879 .69299319 .2456665 .69299319 .21483357 .68466189 .1875 .66799929 .16016643 .65133669 .13858032 .62925216 .1227417 .6017456 .106913249 .57424929 .09899902 .54433187 .09899902 .5119934H.057006837C.057006837 .55299887 .06708781 .5904185 .087249759 .6242523 .107411708 .6580861 .1343282 .6850026 .16799927 .70500186 .20167034 .72500106 .2390035 .7350006 .27999879 .7350006 .32200114 .7350006 .35983277 .7247518 .39349366 .70425418 .4271647 .68375656 .453832 .65659078 .47349549 .62275698 .49316917 .58892318 .503006 .55200198 .503006 .5119934 .503006 .48465983 .5000865 .4598287 .49424745 .4375 .48841859 .4151713 .4790853 .39433799 .46624757 .375 .45342 .35566203 .43667094 .33665977 .41600038 .31799317L.08000183 .011993408 .067993167 .042007448H.503006V0H.05000305Z"/>
<path id="font_2_547" d="M.30999757-.01499939C.26600138-.01499939 .22583516-.0041656496 .1894989 .017501831 .15316265 .03916931 .12416077 .0681661 .102493289 .10449219 .080835979 .14082845 .070007327 .18099976 .070007327 .2250061V.49499513C.070007327 .53900149 .0807546 .57916769 .102249149 .6154938 .12375387 .65183 .15266927 .6808319 .18899536 .7024994 .22533162 .72416689 .26566569 .7350006 .30999757 .7350006 .3540039 .7350006 .39441935 .723999 .4312439 .70199587 .4680786 .68000289 .49666343 .65100607 .5169983 .6150055L.4810028 .59399417C.46400453 .6236674 .44041953 .647583 .4102478 .66574099 .38008628 .6839091 .34666953 .69299319 .30999757 .69299319 .2723287 .69299319 .23857625 .6838277 .20874024 .6654968 .17891439 .64716598 .15533448 .6230011 .13800049 .5930023 .120666507 .56300356 .11199951 .5303345 .11199951 .49499513V.31300355L.09599304 .33200074C.116999309 .3710022 .14633179 .4029185 .18399048 .42774964 .22165935 .45258079 .2636617 .46499635 .30999757 .46499635 .3540039 .46499635 .39417015 .4541626 .43049623 .43249513 .4668325 .41082765 .49583436 .38182578 .51750186 .3454895 .5391693 .30916343 .55000308 .2690023 .55000308 .2250061 .55000308 .18099976 .5391693 .14082845 .51750186 .10449219 .49583436 .0681661 .4668325 .03916931 .43049623 .017501831 .39417015-.0041656496 .3540039-.01499939 .30999757-.01499939M.30999757 .026992798C.34666953 .026992798 .38000489 .035827638 .41000367 .053497316 .44000245 .07116699 .46383158 .09500122 .4814911 .125 .49916078 .15499878 .5079956 .18833415 .5079956 .2250061 .5079956 .26166789 .49916078 .29499818 .4814911 .32499696 .46383158 .35499574 .44000245 .37882997 .41000367 .39649964 .38000489 .4141693 .34666953 .42300416 .30999757 .42300416 .27333579 .42300416 .24000041 .4141693 .20999146 .39649964 .17999268 .37882997 .15615845 .35499574 .13848877 .32499696 .12082926 .29499818 .11199951 .26166789 .11199951 .2250061 .11199951 .18833415 .12082926 .15499878 .13848877 .125 .15615845 .09500122 .17999268 .07116699 .20999146 .053497316 .24000041 .035827638 .27333579 .026992798 .30999757 .026992798Z"/>
<path id="font_3_16" d="M.3580017 .31500245 .15899658 .58399966V0H.083999637V.69999697H.16600037L.4019928 .3809967 .6430054 .69999697H.727005V0H.6519928V.58799746L.44500733 .31500245H.3580017Z"/>
<path id="font_3_4" d="M.3500061 .6060028 .22099304 .27999879H.4790039L.3500061 .6060028M.3919983 .69999697 .66900637 0H.58999636L.5070038 .21000672H.19299317L.11000061 0H.03100586L.30799867 .69999697H.3919983Z"/>
<path id="font_3_21" d="M.08099365 0V.69999697H.352005C.3853302 .69999697 .4163259 .69466146 .44499208 .6839905 .47366844 .67332968 .49850465 .6584981 .51950076 .63949587 .5404968 .6204936 .55699667 .5981598 .56900027 .5724945 .58100387 .5468292 .5870056 .5189972 .5870056 .4889984 .5870056 .45967103 .58100387 .4321696 .56900027 .40649415 .55699667 .38082887 .5404968 .3584951 .51950076 .3394928 .49850465 .3205007 .47383628 .30566917 .4454956 .29499818 .41716514 .28433738 .38633219 .27900697 .35299684 .27900697H.33099366L.5780029 0H.47799684L.23100281 .27900697H.15600586V0H.08099365M.15600586 .6300049V.34899903H.352005C.37399803 .34899903 .39482627 .35266624 .41448976 .3600006 .43416343 .367335 .45116679 .3773346 .46549989 .3899994 .47983299 .40266419 .49116517 .41749574 .49949647 .43449403 .50782778 .45150248 .5119934 .46967063 .5119934 .4889984 .5119934 .5089976 .5079956 .5276642 .5 .54499819 .4920044 .56233218 .48084007 .57733157 .46650697 .58999636 .45217387 .60266116 .43533836 .61249288 .41600038 .6194916 .39666239 .6265004 .3753306 .6300049 .352005 .6300049H.15600586Z"/>
<path id="font_3_6" d="M.6320038 .08799744C.6046702 .057998659 .56933596 .033996583 .526001 .015991211 .48266603-.0020039876 .43799845-.011001587 .3919983-.011001587 .34599815-.011001587 .30249534-.0015004476 .26148988 .017501831 .22049459 .03650411 .18449402 .06233724 .15348816 .09500122 .12249247 .1276652 .097829189 .16582744 .07949829 .20948792 .0611674 .25315858 .052001954 .29966227 .052001954 .34899903 .052001954 .39833579 .0611674 .44500224 .07949829 .4889984 .097829189 .53299459 .12249247 .57132467 .15348816 .60398867 .18449402 .6366628 .22066243 .66250106 .2619934 .6815033 .30333457 .70050558 .34733583 .7100067 .3939972 .7100067 .43999736 .7100067 .48416139 .7008362 .52648928 .6824951 .56882736 .66416427 .60399886 .6396637 .6320038 .60899356L.58200076 .55900576C.55733236 .5843353 .5291646 .603831 .49749757 .6174927 .46583048 .63116458 .43233238 .6380005 .39700318 .6380005 .35967 .6380005 .32466636 .63049826 .2919922 .6154938 .25932823 .60049948 .23066204 .58000186 .20599365 .55400088 .18133545 .5279999 .16200257 .49749757 .147995 .4624939 .1339976 .4275004 .1269989 .3900045 .1269989 .3500061 .1269989 .30999757 .13416545 .27249146 .14849854 .2374878 .16283162 .20249431 .1821645 .17182923 .20649719 .14549256 .23082988 .119166057 .25949607 .09850057 .29249574 .083496097 .3254954 .06850179 .3603312 .06100464 .39700318 .06100464 .43233238 .06100464 .46583048 .06766764 .49749757 .08099365 .5291646 .094329837 .55699667 .11366781 .58099368 .13900757L.6320038 .08799744Z"/>
<path id="font_3_11" d="M.5220032 .41999818V.701004H.5970001V0H.5220032V.3500061H.15899658V0H.083999637V.701004H.15899658V.41999818H.5220032Z"/>
<path id="font_3_60" d="M.067993167 .07600403 .3769989 .33700563C.40699769 .3623352 .4284973 .38633219 .4414978 .40899659 .4544983 .43166099 .46099855 .45566307 .46099855 .4810028 .46099855 .503006 .45666505 .5235036 .44799806 .5424957 .43933106 .561498 .42733256 .57783 .41200257 .5914917 .39667259 .6051636 .37867228 .6159973 .3580017 .6239929 .33733116 .6319987 .31533305 .6360016 .29200746 .6360016 .27334086 .6360016 .25500489 .6333313 .23699951 .6279907 .21900432 .62266036 .20250447 .6153259 .1875 .60598757 .17249553 .59665939 .15915935 .585495 .14749146 .5724945 .13583374 .559494 .12700399 .54499819 .1210022 .52900698L.055999757 .55799868C.065338138 .580663 .07784017 .60132858 .09350586 .6199951 .10917155 .6386617 .1273346 .6546631 .147995 .66799929 .16866558 .68133547 .19116719 .6916707 .21549988 .6990051 .23983257 .70633956 .26533509 .7100067 .29200746 .7100067 .32600404 .7100067 .35783387 .7041728 .38749696 .6925049 .4171702 .680837 .44300334 .6646678 .46499635 .6439972 .4869995 .6233368 .5043335 .5993398 .5169983 .5720062 .5296631 .54467269 .5359955 .51500448 .5359955 .4830017 .5359955 .44700114 .5273285 .41349793 .5099945 .38249208 .49266053 .35149638 .46599327 .32033286 .42999269 .28900147L.17100525 .069000247H.53300479V0H.067993167V.07600403Z"/>
<path id="font_3_58" d="M.55799868 .34700013C.55799868 .38633729 .55216476 .4235026 .5404968 .4584961 .5288289 .49349977 .51316329 .52416488 .49349977 .55049136 .47383628 .576828 .45083619 .5976613 .4244995 .61299136 .39816285 .6283315 .3703308 .6360016 .34100343 .6360016 .31166587 .6360016 .2836609 .6283315 .25698854 .61299136 .23032634 .5976613 .20699565 .57666018 .18699646 .5499878 .16699727 .5233256 .15116374 .49266053 .13949585 .45799256 .12782796 .42333476 .12199402 .38633729 .12199402 .34700013 .12199402 .30833436 .12782796 .27183534 .13949585 .23750305 .15116374 .20317078 .16699727 .17300415 .18699646 .14700318 .20699565 .1210022 .23032634 .10033163 .25698854 .084991458 .2836609 .06966146 .31199647 .06199646 .34199525 .06199646 .37199403 .06199646 .3999939 .069493617 .42599488 .084487918 .45199586 .09949239 .4748281 .11999512 .49449159 .1459961 .5141652 .17199707 .52966818 .20233155 .54100039 .23699951 .5523326 .27166749 .55799868 .30833436 .55799868 .34700013M.04699707 .34700013C.04699707 .39633689 .054662069 .44300334 .069992069 .4869995 .08533224 .53099569 .106165569 .56932577 .13249207 .60198977 .15882874 .6346639 .18982952 .660497 .22549439 .67948916 .26116944 .6984914 .29900614 .70799258 .33900453 .70799258 .3790029 .70799258 .4168345 .6984914 .4524994 .67948916 .48816429 .660497 .5193278 .6346639 .54599 .60198977 .57266238 .56932577 .59383139 .53099569 .6094971 .4869995 .6251628 .44300334 .6329956 .39633689 .6329956 .34700013 .6329956 .29833476 .6253306 .2523346 .6100006 .20899964 .5946706 .16566468 .57366946 .12782796 .5469971 .0954895 .5203349 .06316122 .48916627 .03749593 .4534912 .018493653 .41782633-.0004984538 .37999473-.009994507 .33999635-.009994507 .29999797-.009994507 .26216636-.0006612142 .22650147 .018005372 .1908366 .036671957 .15966797 .06233724 .1329956 .09500122 .10633341 .1276652 .08533224 .16566468 .069992069 .20899964 .054662069 .2523346 .04699707 .29833476 .04699707 .34700013Z"/>
<path id="font_3_64" d="M.54400637 .21299744C.54400637 .18166606 .5376689 .15233357 .5249939 .125 .5123291 .09766642 .49499513 .07400004 .47299195 .054000856 .45099894 .034001668 .42500306 .018335978 .39500428 .007003784 .3650055-.0043284099 .33267213-.009994507 .29800416-.009994507 .260671-.009994507 .22716777-.0033315023 .1974945 .009994507 .16783142 .023330689 .1426646 .042495729 .12199402 .067489627 .10133362 .09249369 .08533732 .12282816 .07400513 .15849304 .062672939 .19416809 .057006837 .2343394 .057006837 .27900697 .057006837 .33900453 .06650289 .39450074 .085494998 .4454956 .104497279 .49650065 .13149517 .54066976 .16648865 .5780029 .20149231 .6153361 .24299622 .6449992 .29100038 .6669922 .33900453 .68899539 .3920034 .7013295 .44999696 .70399478L.42599488 .6309967C.3913269 .6283315 .3584951 .62016299 .3274994 .6064911 .2965037 .5928294 .26850382 .5748291 .24349976 .55249026 .21849568 .53016158 .19732666 .5041606 .17999268 .4744873 .16266887 .44482423 .15067037 .4126638 .14399719 .37800599 .16266378 .39533998 .18666077 .40900675 .21598816 .41900636 .24532573 .42900596 .27599589 .43400575 .30799867 .43400575 .34133403 .43400575 .3723348 .42833457 .40100099 .4169922 .42966715 .40566 .4544983 .3899943 .47549439 .36999513 .49650065 .34999595 .51316836 .32666017 .52549746 .2999878 .53783676 .2733256 .54400637 .24432881 .54400637 .21299744M.13999939 .21600342C.13999939 .19400025 .14416504 .1738332 .15249634 .15550232 .16082764 .13717143 .17215984 .12133789 .18649292 .10800171 .200826 .09466553 .21799214 .08416239 .23799134 .07649231 .2580007 .0688324 .27966819 .06500244 .30299378 .06500244 .32700096 .06500244 .34916688 .0688324 .36949159 .07649231 .38982646 .08416239 .40749613 .094828289 .4225006 .10848999 .4375051 .122161868 .44917298 .13816326 .45750428 .15649414 .46583558 .1748352 .47000123 .19467163 .47000123 .21600342 .47000123 .2373352 .46583558 .2566681 .45750428 .27400209 .44917298 .29133607 .43767295 .30633546 .42300416 .31900025 .40833537 .33166505 .39083354 .3414968 .37049867 .34849549 .3501638 .35549418 .32799784 .35899354 .30400086 .35899354 .28000389 .35899354 .25783793 .35549418 .23750305 .34849549 .21716817 .3414968 .19983419 .3318278 .1855011 .31948854 .17116802 .30715943 .15999858 .29216004 .1519928 .27449037 .14399719 .25683085 .13999939 .2373352 .13999939 .21600342Z"/>
<path id="font_3_77" d="M.42799378 .7409973 .055999757-.057998659H-.024002076L.3480072 .7409973H.42799378Z"/>
<path id="font_3_3" d=""/>
<path id="font_3_23" d="M.55700686 .6300049H.33299256V0H.2579956V.6300049H.033996583V.69999697H.55700686V.6300049Z"/>
<path id="font_3_17" d="M.16600037 .69999697 .5930023 .11399841V.69999697H.66799929V0H.5850067L.15699768 .5870056V0H.08200073V.69999697H.16600037Z"/>
<path id="font_3_22" d="M.0980072 .17799378C.10266622 .16200257 .11099752 .14700318 .1230011 .1329956 .13500469 .11899821 .14950562 .10699972 .1665039 .09700012 .1835022 .08700053 .20249939 .07916769 .22349549 .07350159 .24450176 .06783549 .26633708 .06500244 .28900147 .06500244 .31366984 .06500244 .33633424 .06850179 .35699464 .07550049 .3776652 .08249918 .39549766 .09199524 .41049195 .10398865 .42549644 .115992229 .43733216 .13032532 .44599916 .14698792 .45466615 .16366069 .45899964 .18166606 .45899964 .20100403 .45899964 .2343394 .4455007 .26116944 .4185028 .28149415 .3915049 .301829 .34700523 .31866456 .28500367 .33200074 .125 .3659973 .04499817 .43133036 .04499817 .5279999 .04499817 .55466207 .05083211 .57915756 .0625 .6014862 .074167888 .6238251 .09033203 .6429952 .11099243 .6589966 .13166301 .674998 .15633138 .6875 .18499756 .6965027 .21366374 .7055054 .24533081 .7100067 .27999879 .7100067 .30933634 .7100067 .33683778 .70683798 .36250306 .7005005 .38816834 .694163 .41133119 .6849925 .43199159 .6729889 .45266215 .6609955 .47016398 .64649966 .48449708 .62950137 .49883018 .61250308 .5093333 .593338 .51600649 .5720062L.45500184 .54400637C.44633485 .5713399 .42566429 .59366866 .3929901 .61099246 .36032615 .6283264 .32199607 .6369934 .27799989 .6369934 .22999573 .6369934 .19132488 .6271617 .1619873 .60749819 .13265991 .58783468 .117996219 .5620015 .117996219 .5299988 .117996219 .5 .13316345 .47416688 .16349793 .4524994 .1938324 .4308319 .24133301 .41299949 .30599977 .39900209 .3846639 .3816681 .44232688 .35749818 .47898866 .3264923 .5156606 .2954966 .5339966 .2549998 .5339966 .20500183 .5339966 .17500305 .5276642 .14683533 .5149994 .12049866 .5023346 .09416199 .48483277 .071492519 .4624939 .052490236 .4401652 .033498128 .41383363 .01849874 .38349916 .0074920656 .35316468-.0035044354 .32066346-.009002686 .28599549-.009002686 .25732932-.009002686 .22966004-.005167643 .20298767 .0025024415 .17632549 .010172526 .1519928 .021006266 .12998963 .035003663 .10799662 .049001058 .08883158 .06566366 .07249451 .084991458 .056167604 .10432943 .044001264 .1259969 .035995485 .1499939L.0980072 .17799378Z"/>
<path id="font_3_18" d="M.6609955 .3500061C.6609955 .3900045 .65399679 .4275004 .6399994 .4624939 .626002 .49749757 .6069997 .5279999 .58299258 .55400088 .55899557 .58000186 .5306651 .6006673 .4980011 .6159973 .46533714 .63133749 .43033854 .63900759 .39300538 .63900759 .3556722 .63900759 .32066856 .63133749 .28799439 .6159973 .2553304 .6006673 .22699993 .58000186 .20300293 .55400088 .17900594 .5279999 .16000366 .49749757 .1459961 .4624939 .1319987 .4275004 .125 .3900045 .125 .3500061 .125 .30999757 .1319987 .27249146 .1459961 .2374878 .16000366 .20249431 .17933655 .17199707 .20399475 .1459961 .22866313 .11999512 .25732932 .09932963 .2899933 .083999637 .32266746 .06866964 .35733543 .06100464 .3939972 .06100464 .43133036 .06100464 .4661611 .06866964 .49848939 .083999637 .5308278 .09932963 .55899557 .11999512 .58299258 .1459961 .6069997 .17199707 .626002 .20249431 .6399994 .2374878 .65399679 .27249146 .6609955 .30999757 .6609955 .3500061M.04899597 .34899903C.04899597 .39899699 .057993574 .44599406 .07598877 .48999024 .09399414 .5339966 .118662517 .5721639 .1499939 .6044922 .18133545 .6368306 .21800232 .66250106 .2599945 .6815033 .30199687 .70050558 .34666444 .7100067 .3939972 .7100067 .44132997 .7100067 .48582969 .7006734 .52749636 .68200686 .569163 .6633403 .6054942 .63766989 .63648989 .6049957 .6674957 .5723317 .6919963 .5341644 .70999148 .49049378 .7279968 .44683329 .7369995 .40000407 .7369995 .3500061 .7369995 .29999797 .7279968 .25315858 .70999148 .20948792 .6919963 .16582744 .6674957 .1276652 .63648989 .09500122 .6054942 .06233724 .569163 .036671957 .52749636 .018005372 .48582969-.0006612142 .44132997-.009994507 .3939972-.009994507 .34666444-.009994507 .30199687-.0006612142 .2599945 .018005372 .21800232 .036671957 .18133545 .06216939 .1499939 .09449768 .118662517 .12683614 .09399414 .16483562 .07598877 .2084961 .057993574 .25216676 .04899597 .29900108 .04899597 .34899903Z"/>
<path id="font_3_19" d="M.15699768 .34899903H.352005C.3733368 .34899903 .3936666 .35282899 .41299439 .3604889 .43233238 .36815898 .44933067 .37849427 .46398927 .39149476 .47865806 .40449525 .49032594 .41949464 .49899293 .43649293 .5076599 .45350138 .5119934 .4713389 .5119934 .4900055 .5119934 .5100047 .5079956 .52867129 .5 .54600527 .4920044 .56333926 .48084007 .5781708 .46650697 .5904999 .45217387 .602829 .4351705 .6126607 .41549684 .6199951 .39583335 .6273295 .3746694 .6309967 .352005 .6309967H.15699768V.34899903M.08200073 .701004H.352005C.3853302 .701004 .4163259 .6956685 .44499208 .68499758 .47366844 .67433676 .49850465 .6595052 .51950076 .6405029 .5404968 .6215007 .55699667 .59916689 .56900027 .5735016 .58100387 .5478363 .5870056 .5200043 .5870056 .4900055 .5870056 .46133933 .58066818 .43433634 .56799319 .40899659 .55532839 .383667 .5383301 .36133323 .5169983 .34199525 .4956665 .32266746 .4708303 .30733744 .44248963 .29600526 .41415916 .28467307 .3839976 .27900697 .352005 .27900697H.15699768V0H.08200073V.701004Z"/>
<path id="font_3_5" d="M.33700563 .6309967H.16299439V.41999818H.34300233C.3583323 .41999818 .3726654 .4228312 .3860016 .4284973 .39933778 .43416343 .41100566 .44199626 .42100526 .45199586 .43100486 .46199546 .43900047 .47349549 .44499208 .48649598 .45099388 .49949647 .45399476 .5133311 .45399476 .5279999 .45399476 .5433299 .45082603 .5573273 .44448854 .56999209 .43816123 .58266708 .42966209 .5935008 .4189911 .6024933 .4083303 .611496 .3959961 .6184947 .38198854 .6234894 .36799113 .62849429 .35299684 .6309967 .33700563 .6309967M.34599305 .3500061H.16299439V.070999149H.32699586C.34899903 .070999149 .3703308 .0744985 .3909912 .08149719 .41166178 .08849589 .42999778 .09832764 .44599916 .11099243 .46200053 .1236674 .47483317 .13883464 .48449708 .15649414 .49416099 .17416382 .49899293 .19400025 .49899293 .21600342 .49899293 .23600261 .49482728 .2543335 .48649598 .2709961 .47816468 .28766886 .46700035 .3018341 .45300294 .31349183 .43900553 .3251597 .42267356 .33416239 .40400697 .34049989 .38534037 .34683738 .3660024 .3500061 .34599305 .3500061M.08799744 .0010070801V.701004H.33599855C.36132813 .701004 .3856608 .69700118 .40899659 .68899539 .43233238 .68099978 .45299784 .66966757 .47099305 .6549988 .4889984 .64033 .5033315 .62249758 .5139923 .60150149 .52466329 .5805054 .5299988 .55700686 .5299988 .53100588 .5299988 .5043335 .52416488 .47849528 .51249697 .4534912 .50082907 .4284973 .4833323 .40833537 .4600067 .39300538 .4953359 .3736674 .5231679 .34883119 .5435028 .3184967 .5638377 .28816224 .5740051 .25299583 .5740051 .21299744 .5740051 .18033345 .5671692 .15083313 .5534973 .12449646 .53983566 .09816996 .5215047 .07583618 .49850465 .057495119 .47550456 .039164228 .44916789 .02516683 .41949464 .01550293 .38983155 .00583903 .35899864 .0010070801 .32699586 .0010070801H.08799744Z"/>
<path id="font_3_7" d="M.16000366 .6309967V.070007327H.30000306C.34533183 .070007327 .38632713 .07717387 .4229889 .09150696 .45966087 .10584005 .49066163 .12550354 .5159912 .15049744 .541331 .17550151 .5608317 .20516968 .5744934 .23950196 .5881653 .27383424 .5950012 .31066896 .5950012 .3500061 .5950012 .3893331 .5881653 .42616273 .5744934 .460495 .5608317 .49482728 .541331 .5246582 .5159912 .5499878 .49066163 .5753276 .45966087 .595164 .4229889 .6094971 .38632713 .62383016 .34533183 .6309967 .30000306 .6309967H.16000366M.085006717 0V.701004H.30000306C.35533143 .701004 .40582786 .6918335 .4514923 .67349246 .49716697 .65516158 .5361684 .6299947 .5684967 .59799197 .60083517 .5659993 .62583419 .5286662 .64349368 .48599244 .66116335 .44332887 .66999819 .3976644 .66999819 .34899903 .66999819 .30033366 .66116335 .25483195 .64349368 .2124939 .62583419 .17016602 .60083517 .13316854 .5684967 .101501468 .5361684 .06983439 .4973348 .04499817 .45199586 .026992798 .40666709 .0089976 .3560028 0 .30000306 0H.085006717Z"/>
<path id="font_3_12" d="M.17500305 .69999697V0H.1000061V.69999697H.17500305Z"/>
<path id="font_3_10" d="M.6349945 .3619995V.09199524C.56166079 .024002076 .48132835-.009994507 .3939972-.009994507 .34666444-.009994507 .30199687-.0004984538 .2599945 .018493653 .21800232 .03749593 .18133545 .06316122 .1499939 .0954895 .118662517 .12782796 .09383138 .16582744 .07550049 .20948792 .057169599 .25315858 .04800415 .29966227 .04800415 .34899903 .04800415 .39833579 .057169599 .44500224 .07550049 .4889984 .09383138 .53299459 .11849467 .57132467 .14949036 .60398867 .18049622 .6366628 .21666463 .66250106 .2579956 .6815033 .29933677 .70050558 .34300743 .7100067 .38900758 .7100067 .43366496 .7100067 .47616069 .70200607 .51649478 .68600466 .5568288 .67000326 .58933 .6496684 .6139984 .625L.57699587 .56199648C.5236613 .6133372 .46266175 .63900759 .3939972 .63900759 .35666404 .63900759 .32166545 .6315053 .28900147 .61650088 .2563375 .6014964 .22783916 .58099368 .20350647 .5549927 .17917378 .5290019 .16000366 .49850465 .1459961 .46350099 .1319987 .4284973 .125 .391332 .125 .352005 .125 .31200663 .1319987 .27433778 .1459961 .23899842 .16000366 .20366924 .17917378 .1728363 .20350647 .14649964 .22783916 .120162967 .2560018 .09932963 .28799439 .083999637 .31999717 .06866964 .3539988 .06100464 .3899994 .06100464 .42200218 .06100464 .45366923 .066833499 .4850006 .07849121 .516332 .090159099 .541331 .10532633 .55999758 .12399292V.2899933H.4019928V.3619995H.6349945Z"/>
<path id="font_3_72" d="M.46200563 .12199402C.42000328 .16200257 .3810018 .20167034 .34500123 .24099732 .30900065 .28033448 .27433268 .32100425 .24099732 .3630066 .20099895 .3436686 .17216492 .3228302 .15449524 .30049134 .13683574 .27816264 .12800598 .25099693 .12800598 .21899414 .12800598 .17233277 .14400228 .13516744 .17599488 .10749817 .20799764 .079828899 .2516683 .06599426 .30700685 .06599426 .3670044 .06599426 .41867066 .08466085 .46200563 .12199402M.20599365 .55700686C.20599365 .54299929 .21032715 .52816268 .21899414 .51249697 .22766114 .49683128 .24299622 .4746653 .2649994 .44599916 .30099998 .39933778 .33883158 .35417176 .37849427 .3105011 .4181671 .26683045 .4623362 .22132874 .5110016 .17399597 .5363312 .21066793 .55366519 .25533549 .56300356 .30799867L.6369934 .29600526C.631663 .26400248 .62249758 .23300171 .6094971 .20300293 .5964966 .17300415 .58033248 .14633687 .56100466 .1230011L.63900759 .04699707 .5890045-.0030059815 .5130005 .070999149C.4830017 .04499817 .45000205 .025161744 .41400147 .011489868 .3780009-.0021718343 .34033204-.009002686 .30099488-.009002686 .2649943-.009002686 .23182678-.0035044354 .20149231 .0074920656 .17116802 .01849874 .14500427 .034001668 .1230011 .054000856 .100997928 .07400004 .0838267 .09766642 .07148743 .125 .059158327 .15233357 .052993776 .18200176 .052993776 .21400452 .052993776 .2580007 .06499227 .2974955 .08898926 .332489 .11299642 .36749269 .14833577 .39666239 .19500733 .41999818 .17300415 .44733177 .15683492 .47199504 .14649964 .49398805 .13616435 .5159912 .1309967 .53766378 .1309967 .55900576 .1309967 .57966616 .13549805 .5991618 .14450073 .6174927 .15350342 .63583377 .16566976 .65183517 .18099976 .6654968 .19632976 .6791687 .21433003 .69000247 .23500061 .69799807 .25567118 .70600387 .27733866 .7100067 .30000306 .7100067 .32266746 .7100067 .34399925 .70600387 .3639984 .69799807 .3839976 .69000247 .40133158 .6791687 .41600038 .6654968 .43066917 .65183517 .4421692 .63583377 .4505005 .6174927 .4588318 .5991618 .46299745 .57933047 .46299745 .55799868H.3880005C.3880005 .580663 .3793335 .5994924 .3619995 .6144867 .34466554 .62949118 .32333375 .6369934 .29800416 .6369934 .27200318 .6369934 .25016786 .6293284 .23249817 .6139984 .21482849 .5986684 .20599365 .5796712 .20599365 .55700686Z"/>
<path id="font_3_25" d="M.30900575 0 .033996583 .69999697H.11300659L.3500061 .1000061 .5870056 .69999697H.66600039L.3919983 0H.30900575Z"/>
<path id="font_3_24" d="M.083999637 .69999697H.15899658V.25100709C.15899658 .2250061 .16466268 .20050557 .17599488 .1775055 .18732707 .15450542 .2028249 .13450115 .2224884 .117492679 .24216207 .100494388 .2649994 .086995448 .29100038 .07699585 .31700135 .066996257 .34500123 .06199646 .375 .06199646 .40499879 .06199646 .43299867 .066996257 .45899964 .07699585 .4850006 .086995448 .507665 .100494388 .5269928 .117492679 .54633077 .13450115 .56166586 .15450542 .57299807 .1775055 .58433029 .20050557 .58999636 .2250061 .58999636 .25100709V.69999697H.6649933V.25100709C.6649933 .21500652 .6573283 .18117269 .6419983 .14950562 .6266683 .11783854 .60583499 .09000143 .5794983 .06599426 .5531616 .041997274 .52249148 .023162842 .4874878 .009490967 .4524943-.004170736 .41499839-.011001587 .375-.011001587 .33500163-.011001587 .2975006-.004002889 .26249696 .009994507 .22750347 .024002076 .19667053 .042836507 .16999817 .0664978 .14333599 .09016927 .1223348 .11783854 .10699463 .14950562 .091664638 .18117269 .083999637 .21500652 .083999637 .25100709V.69999697Z"/>
<path id="font_3_15" d="M.083999637 0V.701004H.15899658V.070007327H.5130005V0H.083999637Z"/>
<path id="font_3_8" d="M.07899475 0V.69999697H.55000308V.6300049H.15400696V.41999818H.5019989V.3500061H.15400696V.070007327H.55000308V0H.07899475Z"/>
<clipPath id="clip_4">
<path transform="matrix(1,0,0,-1,0,1080)" d="M0 1080H1920V0H0Z"/>
</clipPath>
<clipPath id="clip_5">
<path transform="matrix(1,0,0,-1,0,1080)" d="M0 1080H1920V0H0Z"/>
</clipPath>
<path id="font_3_84" d="M.09700012-.085006717V.75H.29699708V.67900088H.17199707V-.014007568H.29699708V-.085006717H.09700012Z"/>
<path id="font_3_86" d="M.272995-.085006717H.07400513V-.014007568H.19799805V.67900088H.07400513V.75H.272995V-.085006717Z"/>
<path id="font_3_59" d="M.2769928 .69999697V0H.20199585V.6080017L.07699585 .5039978 .054000856 .57499697 .20100403 .69999697H.2769928Z"/>
</defs>
<path transform="matrix(1,0,0,-1,1134.8068,402.0252)" d="M0 0C-26.742-28.55-54.282-56.434-81.187-84.795-82.855-86.553-85.448-87.066-87.658-86.07L-115.748-73.419C-119.341-71.8-120.248-67.11-117.516-64.269L-60.108-4.55C-57.153-1.474-58.493 3.649-62.581 4.869-92.752 13.87-123.744 20.587-155.28 22.482-155.646 22.503-156.009 22.561-156.365 22.655-157.493 22.953-158.643 23.226-159.682 23.672-151.665 26.018-142.6 26.196-134.29 26.727-92.349 29.411-42.052 26.02-.822 17.544 1.831 16.998 10.545 15.572 12.241 14.43 13.246 13.753 12.597 13.781 12.233 13.231 9.517 9.121 3.607 3.851 0 0" fill="#3e7c4b"/>
<path transform="matrix(1,0,0,-1,1049.2955,410.9168)" d="M0 0-51.791-53.612C-52.888-54.748-54.529-55.172-56.039-54.71L-83.086-46.428C-86.12-45.499-87.066-41.67-84.814-39.434L-55.844-10.689C-53.496-8.359-54.64-4.362-57.863-3.62-61.667-2.744-65.455-1.784-69.301-1.116-122.44 8.107-178.185 2.24-230.005-11.119-229.866-10.218-228.874-10.004-228.221-9.614-220.455-4.986-209.496-.505-200.956 2.662-137.019 26.372-67.061 24.895-1.912 6.974 1.164 6.127 2.217 2.295 0 0" fill="#252d60"/>
<path transform="matrix(1,0,0,-1,850.4474,560.9982)" d="M0 0H-18.574C-19.378 3.368-20.004 7.286-21.87 10.182H-47.335C-46.411 11.473-40.478 20.365-39.845 20.365H-24.566L-30.256 39.528C-40.711 26.572-49.992 12.673-60.94 .123L-91.262 .113C-93.645 1.485-101.319 16.171-102.759 16.171H-112.047L-109.622 28.121C-103.851 29.048-89.809 26.253-85.538 29.935-82.864 32.239-81.844 37.976-86 39.513-88.128 40.3-110.45 40.616-111.488 39.87L-120.435 0H-138.411L-126.348 51.433-79.4 51.501C-55.39 50.509-64.879 18.519-83.883 17.966L-76.104 6.284C-74.363 3.815-72.05 7.701-70.719 9.3-59.206 23.137-49.143 38.481-37.325 51.985-31.032 51.612-23.153 52.909-17.045 52.141-16.388 52.057-15.702 52.196-15.264 51.525Z" fill="#252d60"/>
<path transform="matrix(1,0,0,-1,965.1968,427.9652)" d="M0 0-22.449-24.044C-23.062-24.701-23.978-24.984-24.854-24.786-30.577-23.489-36.326-22.13-42.123-21.203-90.844-13.412-140.729-15.704-189.112-24.576-190.165-24.769-190.647-23.319-189.689-22.84L-179.958-17.975C-179.896-17.944-179.833-17.916-179.769-17.889-123.884 4.982-61.492 12.688-1.511 4.232 .522 3.946 1.402 1.501 0 0" fill="#3e7c4b"/>
<path transform="matrix(1,0,0,-1,852.8441,560.9982)" d="M0 0 11.96 51.832C12.979 52.502 30.458 52.302 31.498 51.551L53.92 19.167C55.055 22.258 59.727 52.109 61.416 52.109H77.294L66.481 .03 46.74 .304C39.415 11.224 31.201 21.58 24.558 32.941L23.124 31.202 16.777 0Z" fill="#252d60"/>
<path transform="matrix(1,0,0,-1,1086.9909,521.6345)" d="M0 0C-4.599-.55-7.821-1.922-9.892-6.284-11.497-9.66-13.493-18.638-12.992-22.241-12.434-26.26-9.299-27.587-5.564-27.987-1.487-28.425 7.743-28.425 11.82-27.987 18.433-27.278 20.767-22.856 22.391-16.992 23.414-13.297 25.215-5.686 22.819-2.61 19.932 1.096 4.65 .556 0 0M-1.785 12.566C7.308 13.311 28.878 13.789 36.508 9.276 46.028 3.645 41.933-11.425 39.236-20.055 35.944-30.585 29.99-36.718 18.856-38.615 10.148-40.097-15.822-40.499-23.471-36.904-33.893-32.005-31.342-17.968-28.799-8.947-24.571 6.051-17.034 11.317-1.785 12.566" fill="#252d60"/>
<path transform="matrix(1,0,0,-1,1127.2681,560.9982)" d="M0 0 11.752 51.546 60.235 51.531C65.118 50.22 70.807 49.98 72.698 44.22 76.243 33.421 68.905 21.766 58.386 18.603 55.432 17.716 51.292 18.518 55.631 15.206L65.91 0H47.035C45.037 1.585 36.64 16.171 35.651 16.171H25.765L28.221 28.09C29.176 28.902 46.999 27.071 51.464 29.115 55.495 30.961 57.14 37.765 52.41 39.513 50.264 40.306 27.398 40.616 26.328 39.866L16.477 0Z" fill="#252d60"/>
<path transform="matrix(1,0,0,-1,995.4487,509.48829)" d="M0 0C-.779-2.057-1.816-11.971-3.373-12.501L-36.746-11.61C-39.697-11.975-43.087-11.927-44.485-15.131-46.482-19.706-40.639-20.164-37.473-20.389-25.19-21.261-2.062-15.893-6.769-36.657-8.147-42.733-11.557-47.113-17.384-49.405-19.153-50.102-24.401-51.51-26.064-51.51H-70.104C-69.646-49.16-68.839-40.287-66.69-39.651-55.875-39.587-43.979-41.017-33.233-40.151-31.369-40.001-26.878-39.315-25.737-37.902-24.721-36.646-23.914-33.286-25.153-32.027-26.87-30.284-42.729-31.408-46.461-31.171-58.841-30.383-67.418-26.431-62.336-12.258-59.93-5.551-51.735 0-44.639 0Z" fill="#252d60"/>
<path transform="matrix(1,0,0,-1,1222.5375,546.6234)" d="M0 0 2.961 11.715C9.462 13.14 22.968 9.303 26.873 15.963 28.365 18.509 29.271 23.767 25.8 24.891L.647 25.107-8.688-14.375H-25.165L-13.415 37.172 33.245 37.125C53.585 36.21 47.913 8.934 33.969 2.88 31.238 1.694 24.109 0 21.271 0Z" fill="#252d60"/>
<path transform="matrix(1,0,0,-1,1058.9617,508.88929)" d="M0 0-2.45-13.126C-13.087-13.819-24.53-12.381-35.073-13.155-42.29-13.686-44.309-16.912-46.212-23.584-47.375-27.661-49.739-36.491-45.372-39.066-40.855-41.728-18.739-40.839-12.257-40.756-10.826-40.739-8.522-39.367-8.621-41.376-8.668-42.319-10.906-51.532-11.35-51.844-23.232-51.699-35.779-52.945-47.659-52.133-62.775-51.101-67.284-45.348-65.837-30.32-64.327-14.642-56.28 0-38.648 0Z" fill="#252d60"/>
<path transform="matrix(1,0,0,-1,718.6279,509.48829)" d="M0 0C.309-.31-.86-6.493-1.145-7.523-1.422-8.531-2.273-8.376-2.374-8.811-2.605-9.82-1.992-11.627-2.958-12.318-4.659-13.536-22.847-11.932-26.359-12.582L-34.753-51.51H-52.728L-43.742-11.982-67.114-12.307C-67.825-11.792-67.692-11.308-67.672-10.567-67.602-7.87-65.975-2.501-65.011 0Z" fill="#252d60"/>
</svg>
